<svg id="svg" xmlns="http://www.w3.org/2000/svg" xmlns:xlink="http://www.w3.org/1999/xlink" width="400" height="401.51706700379265" viewBox="0, 0, 400,401.51706700379265" version="1.1"><g id="svgg"><path id="path0" d="M181.312 19.666 C 171.033 29.966,162.747 38.516,162.897 38.666 C 163.047 38.816,164.288 38.709,165.656 38.427 C 167.023 38.146,168.938 37.778,169.912 37.610 C 171.394 37.354,173.988 35.008,185.882 23.165 L 200.083 9.026 270.076 79.355 C 308.573 118.036,340.258 149.684,340.486 149.684 C 341.031 149.684,340.626 148.409,338.224 142.569 L 336.233 137.729 268.117 69.334 L 200.000 0.940 181.312 19.666 M187.358 39.250 C 173.767 40.319,149.252 45.802,143.496 49.060 C 143.013 49.334,142.375 49.558,142.078 49.558 C 141.781 49.558,140.469 50.029,139.163 50.605 C 137.857 51.182,136.106 51.956,135.272 52.325 C 117.178 60.334,101.139 71.222,86.462 85.461 C 83.755 88.088,79.529 92.734,76.612 96.292 C 75.499 97.649,74.295 99.060,73.936 99.428 C 73.577 99.795,71.467 102.663,69.248 105.800 C 67.029 108.938,64.877 111.949,64.465 112.492 C 64.054 113.036,63.717 113.775,63.717 114.136 C 63.717 114.496,63.541 114.791,63.326 114.791 C 63.111 114.791,62.492 115.645,61.950 116.688 C 61.408 117.731,60.437 119.447,59.792 120.502 C 55.645 127.289,47.041 146.830,47.846 147.635 C 48.733 148.522,60.754 135.065,62.911 130.769 C 67.543 121.544,76.245 107.935,80.119 103.859 C 80.415 103.547,81.674 102.068,82.917 100.572 C 88.743 93.556,100.268 82.737,108.217 76.822 C 123.143 65.715,143.874 55.569,159.798 51.576 C 183.741 45.573,207.811 44.719,229.232 49.112 C 235.827 50.464,235.827 50.465,230.729 45.406 L 226.296 41.007 220.986 40.185 C 215.854 39.391,193.479 38.769,187.358 39.250 M259.032 54.441 C 264.469 59.924,266.124 61.271,269.652 63.088 C 285.390 71.193,296.030 79.014,308.992 92.006 C 312.199 95.221,315.840 99.075,317.083 100.572 C 318.326 102.068,319.585 103.547,319.881 103.859 C 325.180 109.434,336.080 127.523,340.792 138.559 C 341.682 140.645,342.656 142.920,342.955 143.616 C 344.045 146.151,344.353 147.010,346.314 152.971 C 348.218 158.758,349.676 164.336,350.875 170.417 C 351.177 171.947,351.654 174.336,351.935 175.727 C 354.890 190.342,354.449 214.853,350.943 230.847 C 349.986 235.211,349.932 235.651,350.349 235.651 C 350.586 235.651,352.732 233.691,355.117 231.295 L 359.454 226.938 359.789 223.330 C 359.973 221.346,360.334 218.357,360.589 216.688 C 361.214 212.613,361.190 189.122,360.556 184.344 C 358.360 167.782,356.730 160.338,352.656 148.257 C 349.577 139.130,344.017 126.746,340.162 120.430 C 339.543 119.415,338.592 117.731,338.050 116.688 C 337.508 115.645,336.889 114.791,336.674 114.791 C 336.459 114.791,336.283 114.496,336.283 114.136 C 336.283 113.775,335.946 113.036,335.535 112.492 C 335.123 111.949,332.971 108.938,330.752 105.800 C 328.533 102.663,326.423 99.795,326.064 99.428 C 325.705 99.060,324.501 97.649,323.388 96.292 C 313.430 84.146,300.008 72.422,286.178 63.790 C 278.713 59.131,272.011 55.549,264.728 52.325 C 263.894 51.956,262.143 51.182,260.837 50.605 C 259.531 50.029,258.154 49.558,257.777 49.558 C 257.401 49.558,256.876 49.354,256.612 49.105 C 256.348 48.856,255.335 48.494,254.362 48.299 C 252.701 47.968,252.991 48.349,259.032 54.441 M144.880 60.760 C 142.933 61.597,140.544 62.534,139.570 62.842 C 138.235 63.265,131.308 69.926,111.353 89.982 C 96.806 104.600,66.143 135.340,43.211 158.293 C 20.279 181.245,1.517 200.349,1.517 200.747 C 1.517 201.582,37.935 238.234,38.449 237.916 C 38.637 237.800,38.367 235.707,37.848 233.265 L 36.905 228.824 22.880 214.790 L 8.854 200.756 50.166 159.417 C 100.053 109.498,148.863 60.263,149.094 59.628 C 149.347 58.934,148.753 59.094,144.880 60.760 M187.611 77.723 C 160.384 87.503,148.315 111.987,160.668 132.379 C 180.703 165.452,239.848 156.102,239.935 119.848 C 240.013 87.716,188.970 76.820,174.668 105.916 C 165.772 124.014,184.362 143.094,206.423 138.507 C 224.539 134.741,230.097 114.157,215.334 105.505 C 202.111 97.756,184.145 107.662,189.606 119.691 C 193.260 127.740,207.838 127.430,207.838 119.303 C 207.838 116.386,202.896 114.105,201.944 116.583 C 201.497 117.749,202.192 118.133,202.928 117.127 C 204.374 115.149,207.792 118.067,206.870 120.492 C 203.811 128.540,189.637 124.355,189.634 115.403 C 189.631 106.393,202.629 100.696,212.607 105.334 C 232.426 114.546,220.914 140.342,197.881 138.333 C 175.284 136.363,165.581 114.312,180.732 99.365 C 205.304 75.124,251.189 101.257,236.580 131.173 C 219.443 166.267,157.096 154.013,157.096 115.550 C 157.096 99.694,172.112 81.760,188.055 78.571 C 188.935 78.395,189.777 78.053,189.927 77.811 C 190.221 77.334,188.838 77.282,187.611 77.723 M361.501 163.573 C 361.345 163.728,361.640 165.844,362.156 168.274 L 363.095 172.693 377.100 186.706 C 384.803 194.414,390.925 200.899,390.706 201.118 C 387.267 204.553,273.296 318.990,263.791 328.552 C 256.544 335.842,250.741 341.934,250.896 342.089 C 251.051 342.243,252.861 341.664,254.919 340.801 C 256.976 339.938,259.456 338.981,260.430 338.674 C 261.766 338.252,268.677 331.606,288.647 311.535 C 303.194 296.917,333.857 266.177,356.789 243.224 C 379.721 220.272,398.480 201.157,398.477 200.746 C 398.469 199.885,361.927 163.147,361.501 163.573 M44.883 170.222 L 40.546 174.579 40.211 178.187 C 40.027 180.172,39.666 183.161,39.411 184.829 C 38.786 188.904,38.810 212.395,39.444 217.173 C 41.640 233.735,43.270 241.179,47.344 253.260 C 50.423 262.387,55.983 274.771,59.838 281.087 C 60.457 282.102,61.408 283.786,61.950 284.829 C 62.492 285.872,63.111 286.726,63.326 286.726 C 63.541 286.726,63.717 287.021,63.717 287.381 C 63.717 287.742,64.054 288.482,64.465 289.025 C 64.877 289.568,67.029 292.580,69.248 295.717 C 71.467 298.854,73.577 301.722,73.936 302.089 C 74.295 302.457,75.499 303.868,76.612 305.225 C 86.570 317.371,99.992 329.095,113.822 337.727 C 121.287 342.386,127.989 345.969,135.272 349.192 C 136.106 349.562,137.857 350.335,139.163 350.912 C 140.469 351.488,141.846 351.960,142.223 351.960 C 142.599 351.960,143.124 352.163,143.388 352.412 C 143.652 352.661,144.665 353.023,145.638 353.218 C 148.836 353.856,135.776 341.225,130.348 338.429 C 114.610 330.324,103.970 322.503,91.008 309.511 C 87.801 306.296,84.160 302.442,82.917 300.945 C 81.674 299.449,80.415 297.970,80.119 297.658 C 74.820 292.083,63.920 273.994,59.208 262.958 C 58.318 260.872,57.344 258.597,57.045 257.901 C 53.529 249.723,50.513 238.930,48.072 225.790 C 45.482 211.840,45.479 189.823,48.066 175.727 C 48.801 171.724,49.587 167.849,49.889 166.751 C 50.345 165.086,49.218 165.868,44.883 170.222 M132.528 185.169 C 128.891 187.082,127.024 193.124,129.187 195.984 C 129.596 196.524,129.937 197.443,129.946 198.025 C 129.974 199.886,133.285 201.479,140.329 203.021 C 142.669 203.533,145.125 205.402,145.129 206.672 C 145.139 209.850,139.620 212.155,137.053 210.045 C 134.983 208.343,133.973 207.117,133.680 205.952 C 133.248 204.229,131.899 204.456,132.233 206.195 C 132.444 207.297,132.360 207.224,131.828 205.846 C 130.833 203.270,130.366 203.457,128.753 207.078 C 126.606 211.900,126.425 211.944,123.455 208.376 C 121.300 205.786,118.803 201.415,118.851 200.315 C 118.858 200.142,119.733 199.464,120.795 198.810 C 123.418 197.194,124.399 195.358,124.399 192.070 C 124.399 189.154,123.280 186.844,122.088 187.302 C 121.708 187.447,121.280 187.375,121.135 187.142 C 119.156 183.939,105.850 183.738,101.888 186.850 C 100.894 187.631,100.895 187.645,102.023 188.444 C 103.887 189.766,103.766 198.736,101.884 198.736 C 100.979 198.736,100.464 199.113,100.114 200.033 C 99.404 201.899,99.431 201.929,101.517 201.631 L 103.413 201.360 101.747 202.081 C 99.859 202.899,99.951 203.783,101.884 203.413 C 104.096 202.990,103.804 208.984,101.517 210.941 L 99.874 212.348 105.027 212.369 C 107.894 212.380,110.319 212.614,110.493 212.895 C 110.693 213.219,109.032 213.401,105.871 213.401 C 102.475 213.401,101.098 213.564,101.458 213.923 C 101.775 214.240,104.293 214.389,107.862 214.302 L 113.743 214.159 111.739 211.924 C 109.793 209.755,109.735 209.582,109.735 206.023 L 109.735 202.356 111.341 202.003 C 112.993 201.640,114.286 202.583,114.286 204.149 C 114.286 204.517,114.496 205.213,114.754 205.696 C 115.333 206.784,116.817 213.273,116.815 214.713 C 116.812 217.148,118.956 217.939,121.497 216.439 C 126.047 213.755,130.407 212.939,133.755 214.145 C 145.316 218.310,155.895 208.625,149.596 199.644 C 149.002 198.798,148.346 198.387,147.877 198.567 C 147.459 198.727,146.728 198.534,146.252 198.136 C 144.996 197.089,143.192 196.401,139.924 195.723 C 138.239 195.373,137.042 194.857,137.042 194.480 C 137.042 194.126,136.587 193.424,136.030 192.920 C 134.898 191.896,134.707 190.148,135.626 189.229 C 137.148 187.707,143.590 189.572,143.609 191.541 C 143.616 192.170,145.967 193.540,146.336 193.129 C 148.000 191.275,149.953 185.588,148.925 185.588 C 148.508 185.588,148.167 185.416,148.167 185.205 C 148.167 184.994,147.086 184.797,145.765 184.767 C 144.444 184.738,141.429 184.551,139.064 184.353 C 135.150 184.024,134.566 184.097,132.528 185.169 M261.441 184.605 C 257.094 186.455,255.094 191.818,257.248 195.853 C 258.169 197.579,258.246 197.799,258.344 199.007 C 258.421 199.951,261.425 201.244,266.498 202.514 C 271.187 203.689,273.685 205.466,273.224 207.301 C 271.920 212.496,263.108 211.520,261.729 206.029 C 261.560 205.355,261.061 204.804,260.619 204.804 C 260.101 204.804,259.923 205.083,260.117 205.589 C 260.290 206.039,260.205 206.242,259.918 206.065 C 259.643 205.895,259.418 205.314,259.418 204.774 C 259.418 202.879,258.381 203.825,256.890 207.080 C 256.062 208.887,255.205 210.367,254.985 210.367 C 254.385 210.367,252.856 208.440,252.303 206.986 C 251.945 206.043,251.549 205.772,250.813 205.964 C 250.164 206.134,249.810 205.975,249.810 205.515 C 249.810 204.266,248.931 204.749,247.840 206.599 C 246.620 208.667,244.200 209.861,241.230 209.861 L 239.191 209.861 239.191 205.057 L 239.191 200.253 241.371 200.253 C 243.208 200.253,243.729 200.492,244.674 201.770 C 246.753 204.583,247.282 203.866,247.282 198.230 C 247.282 195.449,247.073 193.173,246.818 193.173 C 246.562 193.173,246.030 193.049,245.634 192.897 C 245.191 192.727,244.448 193.308,243.697 194.411 C 242.723 195.841,242.147 196.201,240.834 196.204 L 239.191 196.207 239.191 192.668 L 239.191 189.128 241.819 189.128 C 244.309 189.128,247.500 190.597,248.952 192.413 C 249.205 192.730,249.584 192.561,249.963 191.962 C 250.296 191.435,251.277 189.922,252.143 188.601 C 254.686 184.719,254.272 184.576,240.449 184.576 C 228.522 184.576,228.095 184.672,230.594 186.774 C 232.318 188.225,233.018 196.207,231.421 196.207 C 230.330 196.207,228.066 198.214,228.066 199.182 C 228.066 200.707,229.409 202.127,230.156 201.391 C 231.689 199.878,232.111 200.667,232.111 205.042 C 232.111 209.215,232.072 209.354,230.594 210.447 C 228.049 212.329,228.652 212.428,241.720 212.280 C 251.573 212.168,254.362 212.276,254.362 212.769 C 254.362 213.256,251.648 213.401,242.478 213.401 C 234.893 213.401,230.594 213.584,230.594 213.906 C 230.594 214.650,253.752 214.571,256.569 213.818 C 258.439 213.318,259.241 213.366,261.642 214.121 C 273.252 217.773,283.277 209.690,278.400 200.610 C 277.427 198.798,276.106 197.748,276.106 198.786 C 276.106 199.074,275.480 198.886,274.716 198.366 C 272.719 197.011,271.138 196.402,267.823 195.714 C 266.216 195.381,265.026 194.982,265.180 194.829 C 265.333 194.675,264.896 193.881,264.208 193.064 C 262.170 190.641,263.216 188.622,266.511 188.622 C 268.341 188.622,272.061 190.835,272.061 191.924 C 272.061 192.527,273.125 193.173,274.118 193.173 C 274.490 193.173,278.129 186.470,278.129 185.785 C 278.129 185.677,277.788 185.588,277.370 185.588 C 276.953 185.588,276.612 185.417,276.612 185.209 C 276.612 185.000,275.417 184.805,273.957 184.774 C 272.497 184.744,269.368 184.573,267.004 184.393 C 264.346 184.192,262.223 184.273,261.441 184.605 M63.006 185.005 C 62.861 185.240,63.416 186.079,64.240 186.869 C 65.831 188.393,66.622 196.207,65.186 196.207 C 64.095 196.207,61.694 198.317,61.694 199.276 C 61.694 199.813,61.922 200.253,62.200 200.253 C 62.478 200.253,62.705 200.594,62.705 201.011 C 62.705 201.870,63.497 202.028,63.970 201.264 C 65.043 199.527,65.740 200.899,65.740 204.752 C 65.740 208.682,65.712 208.769,63.970 210.299 C 61.554 212.420,61.498 212.389,67.732 212.389 C 70.875 212.389,73.400 212.608,73.578 212.895 C 73.779 213.221,71.897 213.401,68.298 213.401 C 64.907 213.401,62.705 213.600,62.705 213.906 C 62.705 214.219,65.318 214.412,69.532 214.412 C 77.117 214.412,77.039 214.455,74.579 211.636 C 72.857 209.663,72.819 209.524,72.819 205.189 L 72.819 200.759 74.863 200.759 C 76.766 200.759,77.245 200.972,79.122 202.655 C 80.629 204.007,80.910 203.321,80.910 198.289 C 80.910 192.191,80.023 191.353,76.849 194.453 C 73.829 197.402,72.819 196.940,72.819 192.607 L 72.819 189.006 75.806 189.222 C 78.877 189.444,82.417 191.220,82.424 192.541 C 82.431 193.789,83.504 193.140,84.204 191.464 C 87.771 182.929,89.507 185.297,89.507 198.694 L 89.507 209.534 87.863 210.941 L 86.220 212.348 91.373 212.369 C 94.240 212.380,96.666 212.614,96.839 212.895 C 97.039 213.219,95.412 213.401,92.318 213.401 C 89.433 213.401,87.484 213.605,87.484 213.906 C 87.484 214.215,89.844 214.412,93.552 214.412 C 96.890 214.412,99.621 214.320,99.621 214.207 C 99.621 214.094,98.824 213.049,97.851 211.884 L 96.081 209.765 96.081 199.213 C 96.081 188.958,96.113 188.632,97.206 187.614 C 98.095 186.785,98.216 186.384,97.784 185.698 C 96.932 184.343,87.274 184.153,86.063 185.467 C 85.593 185.977,85.377 186.135,85.583 185.818 C 85.790 185.501,85.809 185.092,85.626 184.909 C 85.130 184.414,63.314 184.506,63.006 185.005 M150.190 184.988 C 150.190 185.214,150.759 186.578,151.454 188.019 C 152.149 189.461,152.718 190.860,152.718 191.130 C 152.718 191.661,154.345 192.668,155.204 192.668 C 155.495 192.668,155.875 192.103,156.048 191.413 C 156.326 190.303,158.551 189.144,160.430 189.131 C 160.638 189.129,160.809 193.719,160.809 199.331 L 160.809 209.534 159.166 210.941 L 157.522 212.348 162.676 212.369 C 165.542 212.380,167.968 212.614,168.142 212.895 C 168.342 213.219,166.714 213.401,163.620 213.401 C 160.735 213.401,158.786 213.605,158.786 213.906 C 158.786 214.215,161.146 214.412,164.855 214.412 C 168.192 214.412,170.923 214.330,170.923 214.230 C 170.923 214.131,170.129 213.050,169.158 211.828 L 167.393 209.608 167.388 199.368 C 167.383 189.738,167.439 189.128,168.319 189.128 C 169.897 189.128,172.440 190.202,172.440 190.869 C 172.440 191.537,174.342 193.480,174.651 193.128 C 176.420 191.116,177.895 186.322,177.002 185.490 C 175.954 184.513,150.190 184.031,150.190 184.988 M191.656 184.994 C 191.656 185.224,192.225 185.946,192.920 186.599 C 194.228 187.828,194.923 196.207,193.718 196.207 C 193.461 196.207,192.594 196.760,191.792 197.435 C 190.815 198.257,190.100 198.518,189.628 198.227 C 189.240 197.987,188.742 197.903,188.520 198.040 C 188.298 198.178,188.116 198.049,188.116 197.754 C 188.116 197.408,186.057 197.219,182.301 197.219 C 176.314 197.219,175.978 197.349,177.009 199.275 C 177.475 200.146,178.180 200.265,183.456 200.360 L 189.381 200.468 183.944 200.630 C 176.455 200.854,176.933 201.770,184.539 201.770 C 189.858 201.770,190.598 201.665,190.802 200.885 C 191.022 200.042,191.036 200.042,191.092 200.885 C 191.155 201.836,192.406 202.096,192.920 201.264 C 193.763 199.901,194.185 201.148,194.185 205.000 C 194.185 209.106,194.136 209.279,192.672 210.436 C 190.389 212.240,190.695 212.389,196.683 212.389 C 199.826 212.389,202.351 212.608,202.528 212.895 C 202.730 213.221,200.848 213.401,197.249 213.401 C 193.857 213.401,191.656 213.600,191.656 213.906 C 191.656 214.218,194.185 214.412,198.230 214.412 C 204.325 214.412,206.727 213.789,204.404 212.811 C 202.501 212.010,201.264 208.885,201.264 204.883 L 201.264 200.759 203.381 200.759 C 204.858 200.759,205.851 201.091,206.668 201.858 L 207.838 202.958 207.838 197.710 L 207.838 192.462 205.921 194.335 C 202.626 197.552,201.264 197.065,201.264 192.668 L 201.264 189.128 203.843 189.128 C 206.380 189.128,209.861 190.331,209.861 191.208 C 209.861 191.454,210.195 191.656,210.604 191.656 C 211.056 191.656,211.232 191.953,211.055 192.415 C 210.205 194.629,212.402 192.681,214.120 189.698 C 217.450 183.912,217.952 185.104,217.952 198.803 L 217.952 209.771 216.396 211.080 L 214.840 212.389 220.189 212.389 C 223.417 212.389,225.537 212.590,225.537 212.895 C 225.537 213.197,223.599 213.401,220.733 213.401 C 217.868 213.401,215.929 213.605,215.929 213.906 C 215.929 214.217,218.385 214.412,222.285 214.412 L 228.640 214.412 227.618 212.977 C 227.056 212.187,226.244 211.249,225.814 210.892 C 224.415 209.731,224.674 188.815,226.106 187.291 C 227.990 185.285,226.550 184.576,220.588 184.576 L 215.567 184.576 213.725 187.207 C 212.712 188.654,211.884 189.643,211.884 189.404 C 211.884 189.166,212.453 188.224,213.148 187.313 C 215.253 184.553,215.339 184.576,203.034 184.576 C 196.776 184.576,191.656 184.764,191.656 184.994 M278.521 184.859 C 277.978 185.402,281.343 192.201,282.025 191.939 C 282.386 191.801,282.680 191.908,282.680 192.178 C 282.680 192.447,283.021 192.668,283.439 192.668 C 283.856 192.668,284.197 192.240,284.197 191.718 C 284.197 190.509,285.034 189.841,287.105 189.399 L 288.748 189.047 288.748 199.417 L 288.748 209.788 287.484 210.782 C 285.582 212.279,285.824 212.389,290.994 212.389 C 293.631 212.389,295.908 212.616,296.081 212.895 C 296.281 213.219,294.653 213.401,291.560 213.401 C 288.674 213.401,286.726 213.605,286.726 213.906 C 286.726 214.215,289.086 214.412,292.794 214.412 C 299.642 214.412,299.483 214.516,297.092 211.598 L 295.322 209.438 295.322 199.283 L 295.322 189.128 296.563 189.128 C 298.468 189.128,300.052 190.041,300.994 191.682 C 302.229 193.836,302.718 193.570,304.420 189.816 C 306.140 186.023,306.266 185.355,305.183 185.771 C 304.721 185.948,304.425 185.772,304.425 185.319 C 304.425 184.572,279.255 184.125,278.521 184.859 M315.550 185.103 C 315.550 185.393,315.991 186.104,316.531 186.683 C 317.692 187.929,315.879 194.129,314.467 193.745 C 312.799 193.291,312.313 193.545,311.207 195.449 C 309.672 198.090,309.701 198.537,311.443 199.144 L 312.898 199.652 312.049 202.101 C 310.709 205.970,309.513 207.930,307.084 210.240 L 304.824 212.389 310.157 212.389 C 313.167 212.389,315.626 212.610,315.803 212.895 C 316.003 213.219,314.291 213.401,311.029 213.401 C 307.975 213.401,305.942 213.603,305.942 213.906 C 305.942 214.217,308.392 214.412,312.281 214.412 C 318.695 214.412,319.853 213.859,317.057 212.130 C 315.563 211.207,315.002 208.226,315.845 205.689 C 316.660 203.233,316.675 203.222,317.499 204.325 C 317.957 204.937,318.980 206.149,319.772 207.017 L 321.213 208.597 322.886 206.605 L 324.559 204.614 325.347 206.498 C 326.557 209.395,326.530 209.674,324.905 211.078 L 323.388 212.388 329.330 212.389 C 332.954 212.389,335.272 212.587,335.272 212.895 C 335.272 213.198,333.249 213.401,330.215 213.401 C 327.181 213.401,325.158 213.603,325.158 213.906 C 325.158 214.220,327.800 214.405,332.111 214.393 L 339.064 214.374 336.410 211.897 C 334.284 209.914,333.453 208.635,332.238 205.480 C 330.342 200.558,330.319 200.759,332.786 200.759 C 333.921 200.759,334.762 200.588,334.654 200.379 C 334.546 200.171,333.928 198.805,333.280 197.345 C 332.095 194.673,331.526 194.156,331.056 195.322 C 330.903 195.700,330.784 195.598,330.761 195.070 C 330.716 194.085,329.458 193.869,328.913 194.752 C 328.719 195.065,327.948 193.760,327.195 191.844 C 325.862 188.458,325.851 188.343,326.757 187.325 C 328.002 185.926,327.962 184.892,326.675 185.229 C 326.119 185.374,325.664 185.287,325.664 185.035 C 325.664 184.783,323.388 184.576,320.607 184.576 C 317.437 184.576,315.550 184.773,315.550 185.103 M72.965 187.469 L 71.341 187.672 71.173 192.066 L 71.004 196.460 70.900 191.783 L 70.796 187.105 72.693 187.186 C 74.532 187.264,74.540 187.273,72.965 187.469 M108.591 195.575 C 108.491 197.174,108.409 195.866,108.409 192.668 C 108.409 189.469,108.491 188.161,108.591 189.760 C 108.691 191.359,108.691 193.976,108.591 195.575 M201.916 187.469 L 200.291 187.672 200.123 192.066 L 199.955 196.460 199.851 191.783 L 199.747 187.105 201.643 187.186 C 203.483 187.264,203.491 187.273,201.916 187.469 M294.953 187.516 C 294.500 187.804,294.292 190.915,294.184 199.012 L 294.037 210.114 293.921 198.609 C 293.814 187.943,293.870 187.105,294.690 187.113 C 295.310 187.118,295.389 187.239,294.953 187.516 M157.775 188.056 C 156.420 188.296,155.787 188.784,155.074 190.139 C 154.182 191.836,154.157 191.848,154.476 190.423 C 154.895 188.546,156.089 187.629,158.028 187.693 C 159.492 187.742,159.483 187.755,157.775 188.056 M237.538 194.326 C 237.432 195.500,237.346 194.412,237.348 191.909 C 237.349 189.406,237.436 188.446,237.540 189.775 C 237.645 191.105,237.644 193.153,237.538 194.326 M286.079 188.097 C 285.029 188.301,283.817 188.900,283.387 189.430 C 282.957 189.959,282.771 190.051,282.974 189.633 C 283.771 187.996,284.391 187.613,286.155 187.669 L 287.990 187.727 286.079 188.097 M115.317 189.644 C 119.511 191.783,117.171 195.968,110.902 197.541 C 109.747 197.831,109.735 197.787,109.735 193.228 L 109.735 188.622 111.525 188.622 C 112.509 188.622,114.216 189.082,115.317 189.644 M122.875 194.202 C 122.550 194.987,121.821 196.043,121.256 196.550 C 120.467 197.257,120.537 197.013,121.555 195.505 C 122.303 194.396,122.916 192.741,122.958 191.712 C 123.025 190.099,123.059 190.055,123.250 191.331 C 123.369 192.126,123.200 193.418,122.875 194.202 M208.344 198.188 C 208.344 202.437,208.473 203.287,209.121 203.287 C 210.142 203.287,210.003 193.639,208.976 193.298 C 208.498 193.140,208.344 194.334,208.344 198.188 M321.647 196.460 C 322.583 198.751,322.634 199.620,321.870 200.254 C 321.440 200.611,321.037 200.813,320.974 200.704 C 320.911 200.595,320.344 199.918,319.714 199.201 C 318.579 197.908,318.577 197.874,319.454 195.507 C 320.272 193.302,320.374 193.208,320.787 194.283 C 321.033 194.924,321.420 195.904,321.647 196.460 M75.348 199.241 C 75.897 199.596,75.448 199.734,73.722 199.739 L 71.339 199.747 71.173 204.678 L 71.008 209.608 70.902 204.172 L 70.796 198.736 72.693 198.744 C 73.736 198.748,74.930 198.972,75.348 199.241 M117.284 200.915 C 117.304 201.140,117.092 201.183,116.814 201.011 C 116.536 200.839,116.324 200.200,116.344 199.591 C 116.379 198.489,117.170 199.602,117.284 200.915 M204.046 199.241 C 204.234 199.547,203.551 199.747,202.324 199.747 L 200.289 199.747 200.124 204.678 L 199.959 209.608 199.853 204.172 L 199.747 198.736 201.740 198.736 C 202.836 198.736,203.874 198.963,204.046 199.241 M240.092 199.107 L 237.706 199.296 237.545 204.958 L 237.384 210.619 237.276 204.678 L 237.168 198.736 239.823 198.827 L 242.478 198.918 240.092 199.107 M331.858 199.598 C 331.233 199.719,330.209 199.719,329.583 199.598 C 328.957 199.478,329.469 199.379,330.721 199.379 C 331.972 199.379,332.484 199.478,331.858 199.598 M110.872 200.842 L 108.723 201.324 108.620 205.719 L 108.517 210.114 108.346 205.858 C 108.126 200.415,108.205 200.241,110.856 200.307 L 113.021 200.361 110.872 200.842 M119.393 205.057 C 119.741 205.729,119.569 205.644,118.882 204.804 C 118.313 204.109,117.846 203.312,117.845 203.034 C 117.841 202.493,118.541 203.407,119.393 205.057 M277.981 205.430 C 277.860 206.059,277.756 205.664,277.751 204.551 C 277.745 203.439,277.844 202.924,277.971 203.408 C 278.097 203.891,278.102 204.801,277.981 205.430 M141.476 213.762 C 140.716 213.877,139.350 213.880,138.441 213.767 C 137.533 213.655,138.154 213.560,139.823 213.557 C 141.492 213.555,142.235 213.647,141.476 213.762 M269.406 213.763 C 268.641 213.879,267.389 213.879,266.625 213.763 C 265.860 213.647,266.485 213.552,268.015 213.552 C 269.545 213.552,270.171 213.647,269.406 213.763 M59.437 252.971 C 59.623 253.597,60.719 256.341,61.873 259.069 L 63.970 264.029 131.949 332.303 L 199.928 400.576 218.653 381.851 C 228.952 371.552,237.255 363.003,237.104 362.852 C 236.953 362.701,235.712 362.808,234.344 363.090 C 232.977 363.371,231.062 363.739,230.088 363.907 C 228.606 364.163,226.012 366.509,214.118 378.352 L 199.917 392.491 129.924 322.162 C 91.427 283.481,59.742 251.833,59.514 251.833 C 59.285 251.833,59.250 252.345,59.437 252.971 M345.544 260.051 C 340.040 265.596,339.109 266.802,336.659 271.555 C 331.677 281.221,323.682 293.658,319.881 297.658 C 319.585 297.970,318.326 299.449,317.083 300.945 C 311.257 307.961,299.732 318.780,291.783 324.695 C 276.857 335.802,256.126 345.948,240.202 349.941 C 216.259 355.944,192.189 356.798,170.768 352.405 C 164.173 351.053,164.174 351.052,169.271 356.112 L 173.704 360.513 179.267 361.394 C 187.266 362.661,212.128 362.685,220.733 361.433 C 233.373 359.595,252.274 354.852,256.504 352.457 C 256.987 352.183,257.635 351.960,257.945 351.960 C 258.254 351.960,259.224 351.635,260.101 351.238 C 260.977 350.840,262.832 350.016,264.223 349.405 C 282.643 341.314,298.682 330.468,313.538 316.056 C 316.245 313.429,320.471 308.783,323.388 305.225 C 324.501 303.868,325.705 302.457,326.064 302.089 C 326.423 301.722,328.533 298.854,330.752 295.717 C 332.971 292.580,335.123 289.568,335.535 289.025 C 335.946 288.482,336.283 287.742,336.283 287.381 C 336.283 287.021,336.459 286.726,336.674 286.726 C 336.889 286.726,337.508 285.872,338.050 284.829 C 338.592 283.786,339.520 282.137,340.111 281.163 C 344.801 273.446,353.361 253.856,352.043 253.856 C 351.850 253.856,348.925 256.643,345.544 260.051 M127.364 288.372 C 123.262 291.863,124.639 296.290,130.697 299.088 C 135.149 301.145,136.242 302.715,134.681 304.814 C 132.633 307.569,129.328 306.567,127.413 302.613 C 125.771 299.221,124.905 299.653,124.905 303.866 L 124.905 307.353 126.928 307.659 C 128.040 307.827,129.880 308.104,131.017 308.275 C 139.958 309.617,141.661 299.238,133.094 295.616 C 128.801 293.802,127.617 292.157,129.149 290.139 C 130.748 288.032,135.196 289.972,135.621 292.962 C 136.063 296.065,138.109 294.509,137.952 291.189 C 137.805 288.091,137.757 287.989,136.429 287.967 C 135.674 287.954,134.897 287.783,134.701 287.587 C 133.805 286.692,128.696 287.238,127.364 288.372 M177.109 288.316 C 171.826 291.646,170.977 301.612,175.606 305.967 C 179.597 309.722,186.478 309.054,189.071 304.661 C 190.885 301.586,189.498 300.864,187.077 303.621 C 182.385 308.965,175.555 303.949,176.810 296.081 C 177.320 292.888,177.534 292.321,178.806 290.810 C 181.551 287.548,187.105 290.043,187.105 294.539 C 187.105 294.985,187.540 295.322,188.116 295.322 C 189.038 295.322,189.128 294.985,189.128 291.522 L 189.128 287.721 187.737 287.700 C 186.972 287.688,184.640 287.588,182.554 287.477 C 179.372 287.307,178.495 287.442,177.109 288.316 M140.076 288.385 C 140.076 288.741,140.759 289.290,141.593 289.605 L 143.110 290.178 143.110 297.820 L 143.110 305.461 141.593 305.765 C 138.044 306.475,139.953 307.459,144.880 307.459 C 149.807 307.459,151.716 306.475,148.167 305.765 L 146.650 305.461 146.650 297.965 C 146.650 290.221,146.886 289.254,148.774 289.254 C 149.274 289.254,149.684 288.913,149.684 288.496 C 149.684 287.875,148.813 287.737,144.880 287.737 C 141.312 287.737,140.076 287.904,140.076 288.385 M150.190 288.402 C 150.190 288.768,150.986 289.447,151.960 289.911 L 153.729 290.755 153.729 297.887 L 153.729 305.018 152.212 305.591 C 149.262 306.705,150.385 307.459,154.994 307.459 C 159.359 307.459,161.064 306.496,158.042 305.738 C 156.105 305.252,155.704 303.882,155.861 298.297 L 156.005 293.181 157.760 295.642 C 158.725 296.996,159.697 298.331,159.920 298.609 C 160.143 298.887,161.822 301.220,163.652 303.793 C 168.641 310.810,168.900 310.608,168.900 299.699 C 168.900 290.604,169.216 289.254,171.342 289.254 C 171.668 289.254,171.934 288.913,171.934 288.496 C 171.934 287.881,171.120 287.737,167.636 287.737 C 163.046 287.737,161.903 288.491,164.821 289.592 C 166.626 290.274,167.000 291.803,166.779 297.589 L 166.625 301.626 161.640 294.682 L 156.655 287.737 153.423 287.737 C 151.088 287.737,150.190 287.922,150.190 288.402 M190.645 288.385 C 190.645 288.741,191.327 289.290,192.162 289.605 L 193.679 290.178 193.679 297.820 L 193.679 305.461 192.162 305.765 C 191.327 305.932,190.645 306.381,190.645 306.764 C 190.645 307.326,192.284 307.459,199.241 307.459 L 207.838 307.459 207.838 304.425 C 207.838 300.851,206.803 300.269,205.594 303.164 C 204.786 305.096,203.240 305.942,200.514 305.942 C 197.434 305.942,197.219 305.674,197.219 301.842 L 197.219 298.357 199.033 298.357 C 200.584 298.357,200.929 298.576,201.419 299.874 C 202.626 303.071,203.793 301.828,203.793 297.345 C 203.793 293.637,203.708 293.300,202.781 293.300 C 202.225 293.300,201.770 293.625,201.770 294.022 C 201.770 295.211,200.279 296.334,198.700 296.334 L 197.219 296.334 197.219 292.794 L 197.219 289.254 199.561 289.254 C 201.583 289.254,202.132 289.496,203.573 291.024 C 205.985 293.582,206.827 293.386,206.827 290.265 L 206.827 287.737 198.736 287.737 C 192.496 287.737,190.645 287.885,190.645 288.385 M217.964 293.871 C 215.692 296.144,215.960 298.043,218.584 298.261 L 220.480 298.418 220.480 296.419 C 220.480 294.687,220.656 294.376,221.798 294.090 C 224.430 293.429,226.269 295.862,225.214 298.610 C 225.036 299.074,222.988 300.680,220.663 302.180 C 217.201 304.414,216.435 305.139,216.435 306.183 L 216.435 307.459 223.262 307.459 L 230.088 307.459 230.088 305.962 L 230.088 304.464 225.664 304.318 L 221.239 304.172 224.134 302.794 C 228.213 300.853,229.077 299.851,229.077 297.068 C 229.077 292.215,221.733 290.102,217.964 293.871 M235.072 293.145 C 232.370 294.822,231.117 301.036,232.818 304.325 C 235.577 309.659,244.146 309.279,246.469 303.719 C 249.649 296.107,241.895 288.912,235.072 293.145 M250.833 293.871 C 248.591 296.114,248.823 298.104,251.327 298.104 C 253.010 298.104,253.097 298.017,253.097 296.347 C 253.097 294.055,255.054 293.149,257.104 294.492 C 259.611 296.135,258.680 299.091,254.984 301.220 C 250.825 303.617,249.305 304.965,249.305 306.255 L 249.305 307.459 256.131 307.459 L 262.958 307.459 262.958 305.962 L 262.958 304.464 258.534 304.318 L 254.109 304.172 256.971 302.809 C 262.164 300.336,263.707 296.400,260.609 293.528 C 258.434 291.512,253.002 291.703,250.833 293.871 M268.803 293.063 C 268.264 293.471,267.183 293.805,266.401 293.805 C 265.318 293.805,264.981 294.045,264.981 294.817 C 264.981 295.635,265.318 295.828,266.751 295.828 L 268.521 295.828 268.521 300.578 C 268.521 305.580,268.348 305.942,265.951 305.942 C 265.418 305.942,264.981 306.283,264.981 306.700 C 264.981 307.324,265.880 307.459,270.038 307.459 C 274.196 307.459,275.095 307.324,275.095 306.700 C 275.095 306.283,274.685 305.942,274.185 305.942 C 272.351 305.942,272.061 304.927,272.061 298.508 C 272.061 291.745,271.589 290.956,268.803 293.063 M241.503 294.973 C 244.046 297.160,243.661 303.966,240.893 305.780 C 237.475 308.020,234.330 301.641,236.405 296.676 C 237.650 293.695,239.356 293.125,241.503 294.973 " stroke="none" fill="#000000" fill-rule="evenodd"></path></g></svg>